PathFileType	4	(X/Y/Z)	C:/Users/beibeiliu/ov580/test_trc/User1\sequence.29_training_dense_left.trc
DataRate	CameraRate	NumFrames	NumMarkers	Units	OrigDataRate	OrigDataStartFrame	OrigNumFrames
120	120	9	19	mm	120	143	228
Frame#	Time	ThumbCMC			ThumbMCP			ThumbIP			ThumbTip			IndexMCP			IndexPIP			IndexTip			MiddleMCP			MiddlePIP			MiddleTip			RingMCP			RingPIP			RingTip			PinkyMCP			PinkyPIP			PinkyTip			BackHand1			BackHand2			BackHand3	
		X0	Y0	Z0	X1	Y1	Z1	X2	Y2	Z2	X3	Y3	Z3	X4	Y4	Z4	X5	Y5	Z5	X6	Y6	Z6	X7	Y7	Z7	X8	Y8	Z8	X9	Y9	Z9	X10	Y10	Z10	X11	Y11	Z11	X12	Y12	Z12	X13	Y13	Z13	X14	Y14	Z14	X15	Y15	Z15	X16	Y16	Z16	X17	Y17	Z17	X18	Y18	Z18	
142	1.18333	-97.3268	8.25998	48.2649	-81.2803	-9.01132	17.7429	-72.7698	-16.4882	-9.69594	-69.1368	-26.4804	-30.551	-115.957	33.6283	-32.5008	-116.332	29.1488	-59.9715	-115.954	24.7317	-84.1862	-128.608	13.7108	-45.2697	-118.515	0.59654	-69.2387	-105.014	-20.2198	-92.5446	-154.468	2.95541	-39.9882	-151.999	-3.50371	-66.9326	-142.261	-6.15507	-93.9369	-178.882	-17.1619	-22.1868	-182.433	-15.9653	-36.9245	-198.29	-10.9224	-52.3722	-163.594	8.59091	18.6708	-171.531	4.76234	50.1365	-140.507	25.5846	39.232	
143	1.19167	-98.7057	8.66153	46.6191	-83.6584	-9.82276	16.9238	-74.6097	-16.9356	-9.28576	-70.4961	-26.6939	-31.2722	-115.244	32.1248	-32.8515	-115.17	29.1261	-58.3727	-114.213	23.9793	-84.5502	-130.816	11.1754	-46.8418	-117.15	-2.60037	-69.6815	-100.602	-20.7615	-89.9418	-155.464	1.74455	-39.4009	-151.05	-4.53541	-69.5399	-144.865	-8.47965	-88.5562	-176.782	-17.2679	-17.8127	-182.528	-16.0485	-37.0246	-199.158	-10.7368	-55.9641	-163.293	11.172	17.8213	-171.222	3.68779	51.5234	-139.98	23.9662	39.0694	
144	1.2	-99.338	6.80709	47.6137	-80.4486	-8.85272	16.0395	-74.7744	-16.655	-10.7904	-67.9499	-26.7226	-33.9896	-115.464	32.2771	-31.995	-111.354	29.3286	-59.1387	-111.56	24.7372	-86.9103	-130.215	11.8246	-43.9955	-116.596	-1.72173	-65.668	-97.6133	-22.4655	-86.961	-152.294	1.27027	-43.4838	-149.241	-3.53781	-64.4806	-144.156	-10.5646	-92.4309	-173.287	-14.9883	-19.5757	-183.747	-17.537	-39.0288	-195.692	-11.1655	-52.3002	-162.706	10.3082	19.1214	-170.352	4.9597	52.7654	-137.511	26.0482	37.3799	
145	1.20833	-97.4911	8.64936	44.7082	-81.6571	-9.32839	16.5226	-75.6941	-16.717	-12.4532	-69.9692	-26.6391	-33.1919	-114.465	31.8184	-35.3565	-112.97	29.1875	-57.5425	-112.197	24.5726	-82.1608	-130.013	11.2233	-42.6887	-116.314	-3.19554	-65.1356	-96.2673	-24.3334	-86.7214	-151.788	2.96749	-38.4049	-148.487	-4.65719	-66.4958	-140.886	-10.7629	-91.834	-178.168	-15.4646	-23.1799	-183.805	-17.8429	-37.1462	-196.691	-11.3205	-54.1163	-164.375	7.77406	19.6893	-171.685	5.12654	52.7627	-136.951	25.988	40.6089	
146	1.21667	-102.305	6.26778	46.5601	-84.7558	-10.3325	16.9922	-72.4447	-17.3093	-8.04198	-72.5546	-26.5936	-30.6732	-116.206	31.0729	-33.4391	-110.772	29.9265	-55.3311	-112.531	25.108	-86.432	-127.323	14.0862	-41.9069	-114.672	-2.97819	-64.6502	-97.655	-24.1374	-82.4203	-151.597	2.66701	-41.8918	-146.802	-3.83881	-69.1031	-141.786	-10.7716	-87.1036	-175.976	-15.8715	-21.6187	-181.279	-14.6643	-37.479	-194.506	-7.13535	-56.1639	-163.424	7.94324	20.8124	-170.789	5.45204	51.9593	-140.701	26.738	41.1271	
147	1.225	-100.657	6.57555	45.4715	-80.8381	-10.6372	17.9134	-78.5568	-16.9746	-9.67249	-69.2328	-26.7943	-32.3873	-113.514	32.9703	-31.6071	-111.677	28.5748	-56.2284	-112.377	23.8635	-81.5168	-129.083	10.5961	-43.1029	-114.282	-2.23194	-63.5045	-98.2356	-24.0582	-80.5498	-153.533	0.879082	-39.3867	-144.699	-3.09233	-66.5982	-141.03	-11.3748	-90.8059	-177.73	-15.7493	-21.0733	-182.116	-14.497	-40.6765	-195.561	-8.20677	-57.5722	-165.394	7.53719	17.9118	-168.363	4.55378	56.3463	-135.705	26.3174	42.4535	
148	1.23333	-98.8134	7.15267	48.3806	-82.2512	-10.1714	15.9566	-77.0812	-17.2056	-9.41332	-68.3086	-28.4462	-31.9733	-115.779	31.2336	-30.5138	-114.668	26.7154	-56.1737	-116.071	21.7491	-83.7014	-126.527	13.1752	-41.5805	-112.193	-3.15622	-64.141	-99.2324	-27.9238	-81.9509	-153.34	-0.106317	-40.9651	-145.002	-3.52797	-65.8531	-136.205	-9.5941	-90.457	-175.105	-14.4676	-21.0913	-181.311	-13.2173	-40.6059	-195.306	-7.88709	-58.4654	-164.246	8.10477	17.933	-167.151	6.48066	57.3648	-137.511	26.7445	40.8625	
149	1.24167	-100.86	6.50168	47.3539	-79.34	-11.4078	19.1428	-74.1894	-17.4899	-12.3754	-70.4087	-27.1744	-34.9451	-114.864	30.6444	-35.2033	-115.306	26.2392	-55.8452	-112.313	22.4361	-85.8788	-126.49	13.1859	-40.1562	-114.787	-2.96792	-64.173	-95.1489	-27.6505	-84.0377	-149.702	2.42979	-40.3879	-145.03	-4.77604	-67.185	-140.479	-12.0927	-87.4557	-173.387	-14.5126	-19.5171	-181.577	-15.8959	-36.3389	-194.426	-9.64886	-57.3507	-165.549	8.23472	18.6104	-169.832	3.57641	54.4013	-135.568	28.1951	41.772	
150	1.25	-101.012	7.15413	44.5067	-81.149	-11.1798	15.0873	-73.2238	-18.0428	-7.91798	-66.7474	-28.1122	-30.9141	-114.672	30.9259	-31.8484	-109.921	30.0791	-59.3189	-113.68	22.6283	-84.2854	-127.929	10.6211	-44.0364	-113.807	-6.2162	-67.3823	-99.429	-24.0793	-82.8102	-148.01	3.57226	-42.8755	-144.627	-4.45517	-67.6971	-138.66	-11.5969	-89.5603	-176.751	-14.2867	-21.2656	-181.61	-14.6233	-39.9934	-196.343	-6.70552	-57.1329	-162.935	9.15052	21.9549	-167.4	5.07822	53.2764	-135.989	28.5584	41.2984	
